<svg xmlns="http://www.w3.org/2000/svg" width="365" height="224" fill="none"><path fill="url(#a)" fill-opacity=".04" d="M5.754-116h15.17v288H5.754z"/><path fill="url(#b)" fill-opacity=".04" d="M28.51-116h15.17v288H28.51z"/><path fill="url(#c)" fill-opacity=".04" d="M51.264-116h15.17v288h-15.17z"/><path fill="url(#d)" fill-opacity=".04" d="M74.019-116h15.17v288h-15.17z"/><path fill="url(#e)" fill-opacity=".04" d="M96.773-116h15.17v288h-15.17z"/><path fill="url(#f)" fill-opacity=".04" d="M119.527-116h15.17v288h-15.17z"/><path fill="url(#g)" fill-opacity=".04" d="M142.283-116h15.17v288h-15.17z"/><path fill="url(#h)" fill-opacity=".04" d="M165.037-116h15.17v288h-15.17z"/><path fill="url(#i)" fill-opacity=".04" d="M187.793-116h15.17v288h-15.17z"/><path fill="url(#j)" fill-opacity=".04" d="M210.547-116h15.17v288h-15.17z"/><path fill="url(#k)" fill-opacity=".04" d="M233.303-116h15.17v288h-15.17z"/><path fill="url(#l)" fill-opacity=".04" d="M256.057-116h15.17v288h-15.17z"/><path fill="url(#m)" fill-opacity=".04" d="M278.811-116h15.17v288h-15.17z"/><path fill="url(#n)" fill-opacity=".04" d="M301.566-116h15.17v288h-15.17z"/><path fill="url(#o)" fill-opacity=".04" d="M324.32-116h15.17v288h-15.17z"/><path fill="url(#p)" fill-opacity=".04" d="M347.076-116h15.17v288h-15.17z"/><path fill="url(#q)" d="M10 1h347v223H10z"/><defs><linearGradient id="a" x1="13.339" x2="13.339" y1="-116" y2="172" gradientUnits="userSpaceOnUse"><stop stop-color="#fff"/><stop offset="1" stop-color="#fff" stop-opacity="0"/></linearGradient><linearGradient id="b" x1="36.095" x2="36.095" y1="-116" y2="172" gradientUnits="userSpaceOnUse"><stop stop-color="#fff"/><stop offset="1" stop-color="#fff" stop-opacity="0"/></linearGradient><linearGradient id="c" x1="58.849" x2="58.849" y1="-116" y2="172" gradientUnits="userSpaceOnUse"><stop stop-color="#fff"/><stop offset="1" stop-color="#fff" stop-opacity="0"/></linearGradient><linearGradient id="d" x1="81.604" x2="81.604" y1="-116" y2="172" gradientUnits="userSpaceOnUse"><stop stop-color="#fff"/><stop offset="1" stop-color="#fff" stop-opacity="0"/></linearGradient><linearGradient id="e" x1="104.358" x2="104.358" y1="-116" y2="172" gradientUnits="userSpaceOnUse"><stop stop-color="#fff"/><stop offset="1" stop-color="#fff" stop-opacity="0"/></linearGradient><linearGradient id="f" x1="127.112" x2="127.112" y1="-116" y2="172" gradientUnits="userSpaceOnUse"><stop stop-color="#fff"/><stop offset="1" stop-color="#fff" stop-opacity="0"/></linearGradient><linearGradient id="g" x1="149.868" x2="149.868" y1="-116" y2="172" gradientUnits="userSpaceOnUse"><stop stop-color="#fff"/><stop offset="1" stop-color="#fff" stop-opacity="0"/></linearGradient><linearGradient id="h" x1="172.622" x2="172.622" y1="-116" y2="172" gradientUnits="userSpaceOnUse"><stop stop-color="#fff"/><stop offset="1" stop-color="#fff" stop-opacity="0"/></linearGradient><linearGradient id="i" x1="195.378" x2="195.378" y1="-116" y2="172" gradientUnits="userSpaceOnUse"><stop stop-color="#fff"/><stop offset="1" stop-color="#fff" stop-opacity="0"/></linearGradient><linearGradient id="j" x1="218.132" x2="218.132" y1="-116" y2="172" gradientUnits="userSpaceOnUse"><stop stop-color="#fff"/><stop offset="1" stop-color="#fff" stop-opacity="0"/></linearGradient><linearGradient id="k" x1="240.888" x2="240.888" y1="-116" y2="172" gradientUnits="userSpaceOnUse"><stop stop-color="#fff"/><stop offset="1" stop-color="#fff" stop-opacity="0"/></linearGradient><linearGradient id="l" x1="263.642" x2="263.642" y1="-116" y2="172" gradientUnits="userSpaceOnUse"><stop stop-color="#fff"/><stop offset="1" stop-color="#fff" stop-opacity="0"/></linearGradient><linearGradient id="m" x1="286.395" x2="286.395" y1="-116" y2="172" gradientUnits="userSpaceOnUse"><stop stop-color="#fff"/><stop offset="1" stop-color="#fff" stop-opacity="0"/></linearGradient><linearGradient id="n" x1="309.151" x2="309.151" y1="-116" y2="172" gradientUnits="userSpaceOnUse"><stop stop-color="#fff"/><stop offset="1" stop-color="#fff" stop-opacity="0"/></linearGradient><linearGradient id="o" x1="331.905" x2="331.905" y1="-116" y2="172" gradientUnits="userSpaceOnUse"><stop stop-color="#fff"/><stop offset="1" stop-color="#fff" stop-opacity="0"/></linearGradient><linearGradient id="p" x1="354.661" x2="354.661" y1="-116" y2="172" gradientUnits="userSpaceOnUse"><stop stop-color="#fff"/><stop offset="1" stop-color="#fff" stop-opacity="0"/></linearGradient><radialGradient id="q" cx="0" cy="0" r="1" gradientTransform="matrix(0 223 -297.721 0 184 1)" gradientUnits="userSpaceOnUse"><stop stop-color="#000319" stop-opacity="0"/><stop offset=".773" stop-color="#000319"/></radialGradient></defs></svg>